<?xml version="1.0" ?><!DOCTYPE svg  PUBLIC '-//W3C//DTD SVG 1.1//EN'  'http://www.w3.org/Graphics/SVG/1.1/DTD/svg11.dtd'><svg height="100%" style="fill-rule:evenodd;clip-rule:evenodd;stroke-linejoin:round;stroke-miterlimit:1.41421;" version="1.1" viewBox="0 0 455 354" width="100%" xml:space="preserve" xmlns="http://www.w3.org/2000/svg" xmlns:serif="http://www.serif.com/" xmlns:xlink="http://www.w3.org/1999/xlink"><rect height="353.412" id="_28.-SFTP" style="fill:none;" width="453.532" x="0.672" y="0.336"/><path d="M436.699,50.298c0,-8.279 -6.721,-15 -15,-15l-371,0c-8.278,0 -15,6.721 -15,15l0,236c0,8.279 6.722,15 15,15l371,0c8.279,0 15,-6.721 15,-15l0,-236Z" id="Rounded-Rectangle-1-copy" style="fill:#cce6ff;fill-opacity:0.258824;"/><path d="M424.699,35.298c0,-8.279 -6.721,-15 -15,-15l-371,0c-8.278,0 -15,6.721 -15,15l0,236c0,8.279 6.722,15 15,15l371,0c8.279,0 15,-6.721 15,-15l0,-236Z" id="Rounded-Rectangle-1" style="fill:url(#_Linear1);"/><path d="M402.699,68.298l-358,0l0,189c0,6.071 4.929,11 11,11l339,0c4.416,0 8,-3.585 8,-8l0,-192Z" id="Rounded-Rectangle-2" style="fill:url(#_Linear2);"/><circle cx="75.699" cy="43.298" id="Ellipse-1" r="8" style="fill:#0084ff;"/><circle cx="52.699" cy="43.298" id="Ellipse-1-copy" r="8" style="fill:#55d7ff;"/><circle cx="98.699" cy="43.298" id="Ellipse-1-copy-2" r="8" style="fill:#0bbc00;"/><path d="M339.699,43.298c0,-4.415 -3.584,-8 -8,-8l-145,0c-4.415,0 -8,3.585 -8,8c0,4.415 3.585,8 8,8l145,0c4.416,0 8,-3.585 8,-8Z" id="Rounded-Rectangle-3" style="fill:#e5f1ff;"/><path d="M402.699,43.298c0,-4.415 -3.584,-8 -8,-8l-9,0c-4.415,0 -8,3.585 -8,8c0,4.415 3.585,8 8,8l9,0c4.416,0 8,-3.585 8,-8Z" id="Rounded-Rectangle-3-copy" style="fill:#e5f1ff;"/><path d="M371.699,43.298c0,-4.415 -3.584,-8 -8,-8l-9,0c-4.415,0 -8,3.585 -8,8c0,4.415 3.585,8 8,8l9,0c4.416,0 8,-3.585 8,-8Z" id="Rounded-Rectangle-3-copy-2" style="fill:#e5f1ff;"/><g id="SFTP"><path d="M179.865,177.615c0,-17.983 -27.66,-12.856 -27.66,-20.511c0,-2.889 2.455,-4.839 6.86,-4.839c3.539,0 7.295,0.867 10.617,2.745c0.866,0.505 1.733,0.722 2.6,0.722c2.455,0 5.127,-1.878 5.127,-4.622c0,-0.867 -0.289,-1.734 -0.866,-2.456c-2.672,-3.538 -11.05,-5.344 -16.539,-5.344c-11.338,0 -18.271,6.644 -18.271,14.661c0,18.127 27.732,12.277 27.732,20.799c0,2.744 -2.744,5.344 -8.377,5.344c-4.695,0 -8.811,-1.516 -12.061,-3.755c-0.795,-0.578 -1.806,-0.795 -2.744,-0.795c-2.456,0 -4.839,2.023 -4.839,4.767c0,0.867 0.289,1.733 0.794,2.455c2.672,3.973 11.339,6.284 18.344,6.284c13,0 19.283,-6.645 19.283,-15.455Z" style="fill:#0085ff;fill-rule:nonzero;"/><path d="M221.319,148.582c0,-2.528 -2.022,-4.55 -4.405,-4.55l-24.338,0c-3.178,0 -5.778,2.6 -5.778,5.778l0,37.771c0,2.744 2.311,5.055 5.055,5.055c2.889,0 5.2,-2.311 5.2,-5.055l0,-15.311l19.355,0c2.383,0 4.406,-2.022 4.406,-4.477c0,-2.528 -2.023,-4.55 -4.406,-4.55l-19.355,0l0,-10.183l19.861,0c2.383,0 4.405,-2.022 4.405,-4.478Z" style="fill:#0085ff;fill-rule:nonzero;"/><path d="M263.929,148.582c0,-2.528 -2.022,-4.55 -4.406,-4.55l-30.404,0c-2.456,0 -4.478,2.022 -4.478,4.406c0,2.6 2.022,4.622 4.478,4.622l10.038,0l0,34.449c0,2.816 2.311,5.127 5.128,5.127c2.889,0 5.2,-2.311 5.2,-5.127l0,-34.449l10.038,0c2.384,0 4.406,-2.022 4.406,-4.478Z" style="fill:#0085ff;fill-rule:nonzero;"/><path d="M308.778,159.56c0,-8.45 -5.706,-15.528 -16.178,-15.528l-16.755,0c-3.177,0 -5.777,2.6 -5.777,5.778l0,37.771c0,2.744 2.311,5.055 5.055,5.055c2.889,0 5.2,-2.311 5.2,-5.055l0,-12.494l12.277,0c10.4,0 16.178,-7.15 16.178,-15.527Zm-10.472,0c0,3.972 -3.034,6.499 -7.078,6.499l-10.905,0l0,-12.999l10.905,0c4.044,0 7.078,2.455 7.078,6.5Z" style="fill:#0085ff;fill-rule:nonzero;"/></g><path d="M390.671,131.727c-0.003,-1.989 -0.955,-3.841 -2.554,-5.005l-57.08,-41.339c-1.151,-0.838 -2.532,-1.179 -3.901,-1.117l-0.009,0c-0.411,0.016 -0.823,0.052 -1.224,0.158c-0.453,0.093 -0.893,0.238 -1.325,0.454c-2.072,1.058 -3.383,3.186 -3.383,5.51l0,16.908l-107.996,0c-7.993,-0.003 -14.472,6.457 -14.472,14.431c0.006,7.967 6.479,14.427 14.472,14.427l107.993,0l66.925,0.577c1.599,-1.17 2.554,-3.027 2.554,-5.004Z" id="Shape-1" style="fill:url(#_Linear3);"/><path d="M67.696,215.262c0.003,1.971 0.956,3.806 2.555,4.96l57.099,40.97c1.151,0.83 2.532,1.168 3.903,1.107l0.008,0c0.412,-0.016 0.824,-0.052 1.224,-0.157c0.454,-0.092 0.894,-0.236 1.326,-0.449c2.073,-1.049 3.384,-3.158 3.384,-5.461l0,-16.757l108.031,0c7.996,0.002 14.477,-6.4 14.477,-14.302c-0.006,-7.897 -6.481,-14.299 -14.477,-14.299l-108.028,0l-66.947,-0.572c-1.599,1.16 -2.555,3.001 -2.555,4.96Z" id="Shape-1-copy" style="fill:url(#_Linear4);"/><path d="M312.099,253.289l0,-11.089c0,-17.898 14.532,-32.43 32.43,-32.43c17.899,0 32.43,14.532 32.43,32.43l0,11.095c5.362,0.179 9.66,4.588 9.66,9.994l0,49.768c0,5.519 -4.48,10 -10,10l-64.87,0c-5.519,0 -10,-4.481 -10,-10l0,-49.768c0,-5.519 4.481,-10 10,-10l0.35,0Zm50.37,0l0,-10.036c0,-9.711 -7.884,-17.595 -17.595,-17.595c-9.711,0 -17.595,7.884 -17.595,17.595l0,10.036l35.19,0Z" id="Rounded-Rectangle-5" style="fill:none;stroke:#fefeff;stroke-width:20px;"/><path d="M312.099,253.289l0,-11.089c0,-17.898 14.532,-32.43 32.43,-32.43c17.899,0 32.43,14.532 32.43,32.43l0,11.095c5.362,0.179 9.66,4.588 9.66,9.994l0,49.768c0,5.519 -4.48,10 -10,10l-64.87,0c-5.519,0 -10,-4.481 -10,-10l0,-49.768c0,-5.519 4.481,-10 10,-10l0.35,0Zm50.37,0l0,-10.036c0,-9.711 -7.884,-17.595 -17.595,-17.595c-9.711,0 -17.595,7.884 -17.595,17.595l0,10.036l35.19,0Z" style="fill:#70d1ff;"/><clipPath id="_clip5"><path d="M312.099,253.289l0,-11.089c0,-17.898 14.532,-32.43 32.43,-32.43c17.899,0 32.43,14.532 32.43,32.43l0,11.095c5.362,0.179 9.66,4.588 9.66,9.994l0,49.768c0,5.519 -4.48,10 -10,10l-64.87,0c-5.519,0 -10,-4.481 -10,-10l0,-49.768c0,-5.519 4.481,-10 10,-10l0.35,0Zm50.37,0l0,-10.036c0,-9.711 -7.884,-17.595 -17.595,-17.595c-9.711,0 -17.595,7.884 -17.595,17.595l0,10.036l35.19,0Z"/></clipPath><g clip-path="url(#_clip5)"><path d="M376.959,242.2c0,-17.898 -14.531,-32.43 -32.43,-32.43c-17.898,0 -32.43,14.532 -32.43,32.43l0,27.013c0,17.898 14.532,32.43 32.43,32.43c17.899,0 32.43,-14.532 32.43,-32.43l0,-27.013Z" style="fill:none;"/><path d="M362.469,243.253c0,-9.711 -7.884,-17.595 -17.595,-17.595c-9.711,0 -17.595,7.884 -17.595,17.595l0,40.795c0,9.711 7.884,17.595 17.595,17.595c9.711,0 17.595,-7.884 17.595,-17.595l0,-40.795Z" style="fill:none;"/></g><path d="M312.099,253.289l0,-11.089c0,-17.898 14.532,-32.43 32.43,-32.43c17.899,0 32.43,14.532 32.43,32.43l0,11.095c-0.112,-0.004 -0.225,-0.006 -0.34,-0.006l-14.15,0l0,-10.036c0,-9.711 -7.884,-17.595 -17.595,-17.595c-9.711,0 -17.595,7.884 -17.595,17.595l0,10.036l-15.18,0Z" id="Rounded-Rectangle-51" style="fill:url(#_Linear6);"/><clipPath id="_clip7"><path d="M312.099,253.289l0,-11.089c0,-17.898 14.532,-32.43 32.43,-32.43c17.899,0 32.43,14.532 32.43,32.43l0,11.095c-0.112,-0.004 -0.225,-0.006 -0.34,-0.006l-14.15,0l0,-10.036c0,-9.711 -7.884,-17.595 -17.595,-17.595c-9.711,0 -17.595,7.884 -17.595,17.595l0,10.036l-15.18,0Z"/></clipPath><g clip-path="url(#_clip7)"><path d="M376.959,242.2c0,-17.898 -14.531,-32.43 -32.43,-32.43c-17.898,0 -32.43,14.532 -32.43,32.43l0,27.013c0,17.898 14.532,32.43 32.43,32.43c17.899,0 32.43,-14.532 32.43,-32.43l0,-27.013Z" style="fill:none;"/><path d="M362.469,243.253c0,-9.711 -7.884,-17.595 -17.595,-17.595c-9.711,0 -17.595,7.884 -17.595,17.595l0,40.795c0,9.711 7.884,17.595 17.595,17.595c9.711,0 17.595,-7.884 17.595,-17.595l0,-40.795Z" style="fill:none;"/></g><path d="M386.619,263.289c0,-5.519 -4.48,-10 -10,-10l-64.87,0c-5.519,0 -10,4.481 -10,10l0,49.768c0,5.519 4.481,10 10,10l64.87,0c5.52,0 10,-4.481 10,-10l0,-49.768Z" id="Rounded-Rectangle-6" style="fill:url(#_Linear8);"/><path d="M358.499,257.325c1.59,0.275 1.88,2.939 -0.675,3.03c-13.95,0.497 -28.081,-0.153 -42.069,-0.032c-3.691,0.064 -6.961,3.26 -6.988,7.086l0,9.855c-0.09,1.541 -2.868,2.271 -3,0c0,-6.733 -1.005,-14.151 4.046,-17.937c2.646,-1.984 6.165,-2.003 9.919,-1.984c12.19,0.06 24.391,0.217 36.607,0.043c1.167,-0.017 1.828,-0.08 2.16,-0.061Zm-0.601,0.05c0,0 0.167,-0.037 0,0Zm0.176,-0.036c-0.16,0.027 0.032,-0.003 0,0Z" style="fill:#fff;fill-opacity:0.545098;fill-rule:nonzero;"/><path d="M307.334,281.352c0.755,0.051 1.38,0.673 1.431,1.431c0.059,2.597 0.002,5.194 0.002,7.791c-0.035,1.542 -2.88,1.832 -2.999,0.068c-0.058,-2.597 -0.001,-5.194 -0.001,-7.791c0.019,-0.836 0.592,-1.521 1.567,-1.499Z" style="fill:#fff;fill-opacity:0.545098;fill-rule:nonzero;"/><path d="M338.88,290.614c-3.587,-1.593 -6.081,-5.128 -6.081,-9.23c0,-5.594 4.638,-10.135 10.35,-10.135c5.713,0 10.35,4.541 10.35,10.135c0,4.338 -2.789,8.043 -6.706,9.486l0,6.816c0,2.184 -1.772,3.957 -3.956,3.957c-2.184,0 -3.957,-1.773 -3.957,-3.957l0,-7.072Z" id="Ellipse-11" style="fill:#0084ff;"/><defs><linearGradient gradientTransform="matrix(1.86149e-14,304.004,-304.004,1.86149e-14,34.8965,133.631)" gradientUnits="userSpaceOnUse" id="_Linear1" x1="0" x2="1" y1="0" y2="0"><stop offset="0" style="stop-color:#cce6ff;stop-opacity:1"/><stop offset="1" style="stop-color:#2684fb;stop-opacity:1"/></linearGradient><linearGradient gradientTransform="matrix(4.71502,214.375,-214.375,4.71502,97.3053,156.961)" gradientUnits="userSpaceOnUse" id="_Linear2" x1="0" x2="1" y1="0" y2="0"><stop offset="0" style="stop-color:#fff;stop-opacity:1"/><stop offset="1" style="stop-color:#d0e4fc;stop-opacity:1"/></linearGradient><linearGradient gradientTransform="matrix(-144.574,1.46716,-1.46716,-144.574,347.35,122.44)" gradientUnits="userSpaceOnUse" id="_Linear3" x1="0" x2="1" y1="0" y2="0"><stop offset="0" style="stop-color:#70d1ff;stop-opacity:1"/><stop offset="1" style="stop-color:#70d1ff;stop-opacity:0"/></linearGradient><linearGradient gradientTransform="matrix(138.842,0,0,138.842,134.499,225.455)" gradientUnits="userSpaceOnUse" id="_Linear4" x1="0" x2="1" y1="0" y2="0"><stop offset="0" style="stop-color:#cce6ff;stop-opacity:1"/><stop offset="1" style="stop-color:#cce6ff;stop-opacity:0"/></linearGradient><linearGradient gradientTransform="matrix(3.75433,82.3179,-82.3179,3.75433,353.066,214.69)" gradientUnits="userSpaceOnUse" id="_Linear6" x1="0" x2="1" y1="0" y2="0"><stop offset="0" style="stop-color:#70d1ff;stop-opacity:1"/><stop offset="1" style="stop-color:#009dff;stop-opacity:1"/></linearGradient><linearGradient gradientTransform="matrix(63.0197,132.929,-132.929,63.0197,334.033,259.143)" gradientUnits="userSpaceOnUse" id="_Linear8" x1="0" x2="1" y1="0" y2="0"><stop offset="0" style="stop-color:#70d1ff;stop-opacity:1"/><stop offset="1" style="stop-color:#009dff;stop-opacity:1"/></linearGradient></defs></svg>